<svg xmlns="http://www.w3.org/2000/svg" xmlns:xlink="http://www.w3.org/1999/xlink" id="Object" x="0px" y="0px" viewBox="0 0 1509.45 1366.47" style="enable-background:new 0 0 1509.45 1366.47;" xml:space="preserve"><style type="text/css">	.st0{fill:#1b3f92;}</style><g>	<g>		<g>			<path class="st0" d="M470.83,1039.04h-95.62c-33.48,0-60.73-27.25-60.73-60.74V388.17c0-33.49,27.25-60.74,60.73-60.74h95.62    c33.49,0,60.73,27.25,60.73,60.74V978.3C531.57,1011.79,504.32,1039.04,470.83,1039.04z M375.21,360.57    c-15.21,0-27.59,12.39-27.59,27.6V978.3c0,15.22,12.38,27.6,27.59,27.6h95.62c15.21,0,27.6-12.39,27.6-27.6V388.17    c0-15.22-12.39-27.6-27.6-27.6H375.21z"></path>		</g>	</g>	<g>		<g>			<path class="st0" d="M331.05,909.64h-49.08c-51.74,0-93.83-42.09-93.83-93.84V550.67c0-51.75,42.09-93.84,93.83-93.84h49.08    c9.15,0,16.57,7.42,16.57,16.57v419.66C347.62,902.21,340.2,909.64,331.05,909.64z M281.97,489.97    c-33.46,0-60.69,27.23-60.69,60.7v265.12c0,33.47,27.23,60.7,60.69,60.7h32.51V489.97H281.97z"></path>		</g>	</g>	<g>		<g>			<path class="st0" d="M1134.21,1039.04h-95.6c-33.51,0-60.75-27.25-60.75-60.74V388.17c0-33.49,27.25-60.74,60.75-60.74h95.6    c33.51,0,60.75,27.25,60.75,60.74V978.3C1194.97,1011.79,1167.72,1039.04,1134.21,1039.04z M1038.61,360.57    c-15.23,0-27.62,12.39-27.62,27.6V978.3c0,15.22,12.39,27.6,27.62,27.6h95.6c15.23,0,27.62-12.39,27.62-27.6V388.17    c0-15.22-12.38-27.6-27.62-27.6H1038.61z"></path>		</g>	</g>	<g>		<g>			<path class="st0" d="M1227.46,909.64h-49.06c-9.15,0-16.57-7.42-16.57-16.57V473.4c0-9.15,7.42-16.57,16.57-16.57h49.06    c51.76,0,93.85,42.09,93.85,93.84v265.12C1321.31,867.54,1279.22,909.64,1227.46,909.64z M1194.97,876.5h32.49    c33.48,0,60.71-27.23,60.71-60.7V550.67c0-33.47-27.23-60.7-60.71-60.7h-32.49V876.5z"></path>		</g>	</g>	<g>		<g>			<path class="st0" d="M994.43,758.5H515c-9.15,0-16.57-7.42-16.57-16.57v-117.4c0-9.15,7.42-16.57,16.57-16.57h479.43    c9.15,0,16.57,7.42,16.57,16.57v117.4C1011,751.08,1003.58,758.5,994.43,758.5z M531.57,725.36h446.29V641.1H531.57V725.36z"></path>		</g>	</g></g></svg>