<svg xmlns="http://www.w3.org/2000/svg" xmlns:xlink="http://www.w3.org/1999/xlink" id="Object" x="0px" y="0px" viewBox="0 0 1509.45 1366.47" style="enable-background:new 0 0 1509.45 1366.47;" xml:space="preserve"><style type="text/css">	.st0{fill:#1b3f92;}</style><g>	<g>		<path class="st0" d="M1250.88,1269.44H284.62c-19.03,0-37.52-8.01-50.72-21.97c-12.57-13.29-18.95-30.35-17.97-48.03L261.7,377.6   c2.11-37.82,32.28-67.45,68.69-67.45h874.72c36.41,0,66.59,29.63,68.69,67.45l45.77,821.84c0.98,17.61-5.43,34.65-18.04,47.99   C1288.28,1261.41,1269.83,1269.44,1250.88,1269.44z M330.39,356.06c-12.26,0-22.09,10.36-22.85,24.09l-45.77,821.84   c-0.35,6.35,2.78,11.08,5.48,13.93c4.51,4.76,11,7.61,17.37,7.61h966.26c6.3,0,12.76-2.86,17.29-7.66   c2.23-2.36,5.92-7.3,5.56-13.89l-45.77-821.84c-0.66-11.84-9.39-24.09-22.85-24.09H330.39z"></path>	</g>	<g>		<path class="st0" d="M569.25,564.33c-43.86,0-79.54-35.68-79.54-79.54c0-43.86,35.68-79.54,79.54-79.54   c43.86,0,79.54,35.68,79.54,79.54C648.79,528.65,613.11,564.33,569.25,564.33z M569.25,451.17c-18.54,0-33.63,15.09-33.63,33.63   c0,18.54,15.09,33.63,33.63,33.63s33.63-15.08,33.63-33.63C602.88,466.26,587.8,451.17,569.25,451.17z"></path>	</g>	<g>		<path class="st0" d="M966.23,564.33c-43.86,0-79.54-35.68-79.54-79.54c0-43.86,35.68-79.54,79.54-79.54   c43.86,0,79.54,35.68,79.54,79.54C1045.76,528.65,1010.08,564.33,966.23,564.33z M966.23,451.17c-18.54,0-33.63,15.09-33.63,33.63   c0,18.54,15.09,33.63,33.63,33.63c18.54,0,33.63-15.08,33.63-33.63C999.85,466.26,984.77,451.17,966.23,451.17z"></path>	</g>	<g>		<path class="st0" d="M575.14,478.84c-12.68,0-22.95-10.28-22.95-22.95V287.1c0-118.86,96.7-215.56,215.56-215.56   S983.3,168.24,983.3,287.1v168.77c0,12.68-10.28,22.95-22.95,22.95s-22.95-10.28-22.95-22.95V287.1   c0-93.54-76.11-169.65-169.65-169.65c-93.54,0-169.65,76.11-169.65,169.65v168.78C598.09,468.56,587.82,478.84,575.14,478.84z"></path>	</g></g></svg>