
<svg xmlns="http://www.w3.org/2000/svg" xmlns:xlink="http://www.w3.org/1999/xlink" id="Object" x="0px" y="0px" viewBox="0 0 1509.45 1366.47" style="enable-background:new 0 0 1509.45 1366.47;" xml:space="preserve"><style type="text/css">	.st0{fill:#1b3f92;}</style><g>	<g>		<g>			<path class="st0" d="M1186.15,1073.16c-9.6,0-17.37-7.76-17.37-17.37v-49.67c0-9.6,7.76-17.37,17.37-17.37    c9.61,0,17.37,7.76,17.37,17.37v49.67C1203.52,1065.4,1195.75,1073.16,1186.15,1073.16z"></path>		</g>	</g>	<g>		<g>			<path class="st0" d="M341.68,1073.16c-9.61,0-17.37-7.76-17.37-17.37v-49.67c0-9.6,7.76-17.37,17.37-17.37    c9.6,0,17.37,7.76,17.37,17.37v49.67C359.05,1065.4,351.29,1073.16,341.68,1073.16z"></path>		</g>	</g>	<g>		<g>			<path class="st0" d="M1285.5,1073.16c-9.61,0-17.37-7.76-17.37-17.37v-49.67c0-9.6,7.76-17.37,17.37-17.37    c9.6,0,17.37,7.76,17.37,17.37v49.67C1302.86,1065.4,1295.1,1073.16,1285.5,1073.16z"></path>		</g>	</g>	<g>		<g>			<path class="st0" d="M242.33,1073.16c-9.6,0-17.37-7.76-17.37-17.37v-49.67c0-9.6,7.76-17.37,17.37-17.37    c9.61,0,17.37,7.76,17.37,17.37v49.67C259.7,1065.4,251.94,1073.16,242.33,1073.16z"></path>		</g>	</g>	<g>		<g>			<path class="st0" d="M1186.15,1222.18c-9.6,0-17.37-7.76-17.37-17.37v-49.67c0-9.6,7.76-17.37,17.37-17.37    c9.61,0,17.37,7.76,17.37,17.37v49.67C1203.52,1214.42,1195.75,1222.18,1186.15,1222.18z"></path>		</g>	</g>	<g>		<g>			<path class="st0" d="M341.68,1222.18c-9.61,0-17.37-7.76-17.37-17.37v-49.67c0-9.6,7.76-17.37,17.37-17.37    c9.6,0,17.37,7.76,17.37,17.37v49.67C359.05,1214.42,351.29,1222.18,341.68,1222.18z"></path>		</g>	</g>	<g>		<g>			<path class="st0" d="M1285.5,1222.18c-9.61,0-17.37-7.76-17.37-17.37v-49.67c0-9.6,7.76-17.37,17.37-17.37    c9.6,0,17.37,7.76,17.37,17.37v49.67C1302.86,1214.42,1295.1,1222.18,1285.5,1222.18z"></path>		</g>	</g>	<g>		<g>			<path class="st0" d="M242.33,1222.18c-9.6,0-17.37-7.76-17.37-17.37v-49.67c0-9.6,7.76-17.37,17.37-17.37    c9.61,0,17.37,7.76,17.37,17.37v49.67C259.7,1214.42,251.94,1222.18,242.33,1222.18z"></path>		</g>	</g>	<g>		<g>			<path class="st0" d="M763.91,278.37c-9.6,0-17.37-7.76-17.37-17.37V62.3c0-9.61,7.76-17.37,17.37-17.37h173.86    c9.61,0,17.37,7.76,17.37,17.37v99.35c0,9.6-7.76,17.37-17.37,17.37H781.28V261C781.28,270.61,773.52,278.37,763.91,278.37z     M781.28,144.28h139.13V79.67H781.28V144.28z"></path>		</g>	</g>	<g>		<g>			<path class="st0" d="M1086.8,1321.53h-99.35c-9.6,0-17.37-7.76-17.37-17.37c0-9.61,7.76-17.37,17.37-17.37h81.98V519.27    c0-9.6,7.76-17.37,17.37-17.37c9.6,0,17.37,7.76,17.37,17.37v784.9C1104.17,1313.77,1096.4,1321.53,1086.8,1321.53z"></path>		</g>	</g>	<g>		<g>			<path class="st0" d="M540.38,1321.53h-99.35c-9.6,0-17.37-7.76-17.37-17.37v-784.9c0-9.6,7.76-17.37,17.37-17.37    c9.6,0,17.37,7.76,17.37,17.37v767.53h81.98c9.61,0,17.37,7.76,17.37,17.37C557.75,1313.77,549.98,1321.53,540.38,1321.53z"></path>		</g>	</g>	<g>		<g>			<path class="st0" d="M1136.47,576.41c-3.83,0-7.66-1.21-10.87-3.78L763.91,283.27L402.22,572.63    c-7.47,5.97-18.39,4.75-24.45-2.72c-6.02-7.52-4.75-18.43,2.72-24.45l372.56-298.05c6.4-5.04,15.33-5.04,21.73,0l372.56,298.05    c7.47,6.02,8.73,16.93,2.72,24.45C1146.61,574.18,1141.57,576.41,1136.47,576.41z"></path>		</g>	</g>	<g>		<g>			<path class="st0" d="M763.91,675.76c-64.37,0-116.72-52.34-116.72-116.72s52.34-116.72,116.72-116.72s116.72,52.34,116.72,116.72    S828.29,675.76,763.91,675.76z M763.91,477.07c-45.21,0-81.98,36.77-81.98,81.98c0,45.21,36.77,81.98,81.98,81.98    s81.98-36.77,81.98-81.98C845.9,513.84,809.13,477.07,763.91,477.07z"></path>		</g>	</g>	<g>		<g>			<path class="st0" d="M987.45,924.14H540.38c-9.6,0-17.37-7.76-17.37-17.37V757.75c0-9.61,7.76-17.37,17.37-17.37h447.07    c9.6,0,17.37,7.76,17.37,17.37v149.02C1004.82,916.37,997.06,924.14,987.45,924.14z M557.75,889.4h412.34V775.11H557.75V889.4z"></path>		</g>	</g>	<g>		<g>			<path class="st0" d="M838.43,924.14c-9.6,0-17.37-7.76-17.37-17.37V757.75c0-9.61,7.76-17.37,17.37-17.37    c9.61,0,17.37,7.76,17.37,17.37v149.02C855.79,916.37,848.03,924.14,838.43,924.14z"></path>		</g>	</g>	<g>		<g>			<path class="st0" d="M689.4,924.14c-9.61,0-17.37-7.76-17.37-17.37V757.75c0-9.61,7.76-17.37,17.37-17.37    c9.6,0,17.37,7.76,17.37,17.37v149.02C706.77,916.37,699.01,924.14,689.4,924.14z"></path>		</g>	</g>	<g>		<g>			<path class="st0" d="M987.45,1321.53H540.38c-9.6,0-17.37-7.76-17.37-17.37v-248.37c0-9.6,7.76-17.37,17.37-17.37h447.07    c9.6,0,17.37,7.76,17.37,17.37v248.37C1004.82,1313.77,997.06,1321.53,987.45,1321.53z M557.75,1286.8h412.34v-213.64H557.75    V1286.8z"></path>		</g>	</g>	<g>		<g>			<path class="st0" d="M838.43,1321.53c-9.6,0-17.37-7.76-17.37-17.37v-248.37c0-9.6,7.76-17.37,17.37-17.37    c9.61,0,17.37,7.76,17.37,17.37v248.37C855.79,1313.77,848.03,1321.53,838.43,1321.53z"></path>		</g>	</g>	<g>		<g>			<path class="st0" d="M689.4,1321.53c-9.61,0-17.37-7.76-17.37-17.37v-248.37c0-9.6,7.76-17.37,17.37-17.37    c9.6,0,17.37,7.76,17.37,17.37v248.37C706.77,1313.77,699.01,1321.53,689.4,1321.53z"></path>		</g>	</g>	<g>		<g>			<path class="st0" d="M1434.52,924.14h-248.37c-9.6,0-17.37-7.76-17.37-17.37c0-9.6,7.76-17.37,17.37-17.37h215.87l-76.16-114.29    h-139.71c-9.6,0-17.37-7.76-17.37-17.37c0-9.61,7.76-17.37,17.37-17.37h149.02c5.82,0,11.25,2.86,14.46,7.71l99.35,149.02    c3.59,5.34,3.88,12.22,0.87,17.85C1446.84,920.64,1440.92,924.14,1434.52,924.14z"></path>		</g>	</g>	<g>		<g>			<path class="st0" d="M341.68,924.14H93.31c-6.4,0-12.32-3.49-15.33-9.17c-3.01-5.63-2.72-12.52,0.87-17.85l99.35-149.02    c3.2-4.85,8.63-7.71,14.46-7.71h149.02c9.6,0,17.37,7.76,17.37,17.37c0,9.6-7.76,17.37-17.37,17.37H201.97L125.81,889.4h215.87    c9.6,0,17.37,7.76,17.37,17.37C359.05,916.37,351.29,924.14,341.68,924.14z"></path>		</g>	</g>	<g>		<g>			<path class="st0" d="M1384.85,1321.53h-198.7c-9.6,0-17.37-7.76-17.37-17.37c0-9.61,7.76-17.37,17.37-17.37h181.33V906.77    c0-9.6,7.76-17.37,17.37-17.37c9.61,0,17.37,7.76,17.37,17.37v397.4C1402.21,1313.77,1394.45,1321.53,1384.85,1321.53z"></path>		</g>	</g>	<g>		<g>			<path class="st0" d="M341.68,1321.53h-198.7c-9.6,0-17.37-7.76-17.37-17.37v-397.4c0-9.6,7.76-17.37,17.37-17.37    s17.37,7.76,17.37,17.37v380.03h181.33c9.6,0,17.37,7.76,17.37,17.37C359.05,1313.77,351.29,1321.53,341.68,1321.53z"></path>		</g>	</g></g></svg>