<svg xmlns="http://www.w3.org/2000/svg" xmlns:xlink="http://www.w3.org/1999/xlink" id="Object" x="0px" y="0px" viewBox="0 0 1509.45 1366.47" style="enable-background:new 0 0 1509.45 1366.47;" xml:space="preserve"><style type="text/css">	.st0{fill:#1b3f92;}</style><g>	<g>		<g>			<path class="st0" d="M826.19,342.55h-140.7c-9,0-16.3-7.3-16.3-16.3v-6c0-47.78,38.87-86.65,86.65-86.65s86.65,38.87,86.65,86.65    v6C842.49,335.25,835.19,342.55,826.19,342.55z M702.78,309.96h106.14c-4.82-24.9-26.78-43.75-53.07-43.75    C729.56,266.2,707.6,285.06,702.78,309.96z"></path>			<path class="st0" d="M756.39,266.2c-9,0-16.3-7.3-16.3-16.3v-94.71c0-9,7.3-16.3,16.3-16.3c9,0,16.3,7.3,16.3,16.3v94.71    C772.69,258.9,765.39,266.2,756.39,266.2z"></path>		</g>	</g>	<g>		<path class="st0" d="M780.8,740.83h-49.98c-5.49,0-10.61-2.76-13.62-7.35l-27.99-42.63H441.82c-9,0-16.3-7.3-16.3-16.3v-56.5   c0-9,7.3-16.3,16.3-16.3h627.98c9,0,16.3,7.3,16.3,16.3v56.5c0,9-7.3,16.3-16.3,16.3H822.41l-27.99,42.63   C791.41,738.07,786.29,740.83,780.8,740.83z M739.62,708.24H772L800,665.61c3.01-4.59,8.13-7.35,13.62-7.35h239.88v-23.9H458.12   v23.9H698c5.49,0,10.61,2.76,13.62,7.35L739.62,708.24z"></path>		<g>			<path class="st0" d="M498.32,838.61H315.79c-9,0-16.3-7.3-16.3-16.3c0-9,7.3-16.3,16.3-16.3h182.53c4.19,0,7.61-3.41,7.61-7.61    c0-4.19-3.41-7.61-7.61-7.61H351.09c-33.24,0-61.24-24.81-65.29-57.76l-20.66-132.23c-0.03-0.2-0.06-0.41-0.08-0.61    c-1.72-14.66-13.67-25.89-28.41-26.71c-8.99-0.5-15.87-8.19-15.37-17.18c0.5-8.99,8.23-15.87,17.18-15.37    c30.48,1.69,55.21,24.85,58.93,55.12l20.66,132.24c0.03,0.2,0.06,0.41,0.08,0.61c1.96,16.71,16.13,29.31,32.95,29.31h147.22    c22.17,0,40.2,18.03,40.2,40.2C538.51,820.58,520.48,838.61,498.32,838.61z"></path>			<path class="st0" d="M522.2,1227.57c-8.39,0-15.51-6.43-16.22-14.94l-32.59-388.96c-0.75-8.97,5.91-16.85,14.88-17.6    c8.99-0.77,16.85,5.91,17.6,14.88l32.59,388.96c0.75,8.97-5.91,16.85-14.88,17.6C523.12,1227.56,522.65,1227.57,522.2,1227.57z"></path>			<path class="st0" d="M313.63,1227.57c-0.46,0-0.92-0.02-1.38-0.06c-8.97-0.75-15.63-8.63-14.88-17.6l32.59-388.96    c0.75-8.97,8.62-15.64,17.6-14.88c8.97,0.75,15.63,8.63,14.88,17.6l-32.59,388.96C329.14,1221.14,322.02,1227.57,313.63,1227.57z    "></path>			<path class="st0" d="M450.51,1025H330.59c-9,0-16.3-7.3-16.3-16.3c0-9,7.3-16.3,16.3-16.3h119.92c9,0,16.3,7.3,16.3,16.3    C466.81,1017.7,459.51,1025,450.51,1025z"></path>		</g>		<g>			<path class="st0" d="M1193.66,838.61h-182.53c-22.17,0-40.2-18.03-40.2-40.2c0-22.17,18.03-40.2,40.2-40.2h147.22    c16.82,0,30.99-12.6,32.95-29.31c0.02-0.2,0.05-0.41,0.08-0.61l20.66-132.24c3.72-30.27,28.45-53.42,58.93-55.12    c9-0.49,16.68,6.38,17.18,15.37c0.5,8.99-6.38,16.68-15.37,17.18c-14.74,0.82-26.68,12.05-28.41,26.71    c-0.02,0.2-0.05,0.41-0.08,0.61l-20.66,132.23c-4.04,32.95-32.05,57.76-65.29,57.76h-147.22c-4.19,0-7.61,3.41-7.61,7.61    c0,4.19,3.41,7.61,7.61,7.61h182.53c9,0,16.3,7.3,16.3,16.3C1209.96,831.32,1202.66,838.61,1193.66,838.61z"></path>			<path class="st0" d="M987.25,1227.57c-0.46,0-0.92-0.02-1.38-0.06c-8.97-0.75-15.63-8.63-14.88-17.6l32.59-388.96    c0.75-8.97,8.62-15.64,17.6-14.88c8.97,0.75,15.63,8.63,14.88,17.6l-32.59,388.96C1002.76,1221.14,995.63,1227.57,987.25,1227.57    z"></path>			<path class="st0" d="M1195.81,1227.57c-8.39,0-15.51-6.43-16.22-14.94L1147,823.68c-0.75-8.97,5.91-16.85,14.88-17.6    c8.97-0.77,16.85,5.91,17.6,14.88l32.59,388.96c0.75,8.97-5.91,16.85-14.88,17.6    C1196.73,1227.56,1196.27,1227.57,1195.81,1227.57z"></path>			<path class="st0" d="M1178.86,1025h-119.92c-9,0-16.3-7.3-16.3-16.3c0-9,7.3-16.3,16.3-16.3h119.92c9,0,16.3,7.3,16.3,16.3    C1195.15,1017.7,1187.86,1025,1178.86,1025z"></path>		</g>		<path class="st0" d="M609.14,586.55H470.07c-9,0-16.3-7.3-16.3-16.3c0-9,7.3-16.3,16.3-16.3h129.41l58.38-106.69   c4.32-7.89,14.22-10.79,22.12-6.47c7.9,4.32,10.79,14.22,6.47,22.12l-63.02,115.17C620.57,583.3,615.09,586.55,609.14,586.55z"></path>		<path class="st0" d="M1041.55,586.55H902.48c-5.96,0-11.44-3.25-14.3-8.47l-63.02-115.17c-4.32-7.9-1.42-17.8,6.47-22.12   c7.89-4.32,17.8-1.42,22.12,6.47l58.38,106.69h129.41c9,0,16.3,7.3,16.3,16.3C1057.85,579.26,1050.55,586.55,1041.55,586.55z"></path>		<path class="st0" d="M642.97,1227.57c-9,0-16.3-7.3-16.3-16.3V674.56c0-9,7.3-16.3,16.3-16.3s16.3,7.3,16.3,16.3v536.72   C659.26,1220.28,651.97,1227.57,642.97,1227.57z"></path>		<path class="st0" d="M863.37,1227.57c-9,0-16.3-7.3-16.3-16.3V674.56c0-9,7.3-16.3,16.3-16.3c9,0,16.3,7.3,16.3,16.3v536.72   C879.67,1220.28,872.37,1227.57,863.37,1227.57z"></path>	</g></g></svg>