
<svg xmlns="http://www.w3.org/2000/svg" xmlns:xlink="http://www.w3.org/1999/xlink" id="Object" x="0px" y="0px" viewBox="0 0 1509.45 1366.47" style="enable-background:new 0 0 1509.45 1366.47;" xml:space="preserve"><style type="text/css">	.st0{fill:#1b3f92;stroke:#1b3f92;stroke-width:3;stroke-miterlimit:10;}</style><g>	<g>		<path class="st0" d="M754.72,29.44c40.34,0,79.95,5.36,117.73,15.93c36.18,10.13,70.84,25.06,103.01,44.4   c62.07,37.3,114.3,90.66,151.06,154.33s56.86,135.59,58.12,207.99c0.66,37.53-3.74,75.01-13.06,111.41   c-9.73,38.01-24.9,74.99-45.07,109.92l-371.8,643.98l-371.8-643.98c-20.17-34.93-35.33-71.92-45.07-109.92   c-9.32-36.39-13.71-73.88-13.06-111.41c1.27-72.4,21.37-144.32,58.12-207.99c36.76-63.67,88.99-117.03,151.06-154.33   c32.17-19.33,66.83-34.27,103.01-44.4C674.77,34.81,714.38,29.44,754.72,29.44L754.72,29.44 M754.72,9.83L754.72,9.83   c-345.59,0-561.58,374.11-388.79,673.4l388.79,673.4l388.79-673.4C1316.31,383.94,1100.31,9.83,754.72,9.83L754.72,9.83z"></path>		<path class="st0" d="M754.72,1362.63l-391.39-677.9c-21.2-36.72-37.14-75.62-47.39-115.62c-9.82-38.36-14.45-77.86-13.76-117.41   c1.33-76.23,22.48-151.92,61.15-218.9s93.65-123.14,159-162.41c33.91-20.38,70.44-36.12,108.56-46.79   c39.76-11.13,81.42-16.77,123.82-16.77l0,0c42.4,0,84.06,5.64,123.82,16.77c38.13,10.67,74.66,26.41,108.56,46.79   c65.35,39.27,120.33,95.43,159,162.41s59.82,142.67,61.15,218.9c0.69,39.55-3.94,79.06-13.76,117.41   c-10.25,40-26.19,78.9-47.39,115.62L754.72,1362.63z M754.72,12.83c-161.21,0-305.58,83.35-386.19,222.97   c-80.61,139.61-80.61,306.32,0,445.93l386.19,668.9l386.19-668.9c80.61-139.61,80.61-306.32,0-445.93   C1060.31,96.19,915.94,12.83,754.72,12.83z M754.72,1323.41l-374.4-648.48c-20.31-35.17-35.57-72.41-45.37-110.68   c-9.39-36.66-13.81-74.41-13.15-112.21c1.28-72.91,21.51-145.33,58.52-209.44s89.61-117.84,152.12-155.4   c32.4-19.47,67.31-34.52,103.75-44.71c38.04-10.65,77.92-16.04,118.54-16.04l0,0c40.61,0,80.5,5.4,118.54,16.04   c36.44,10.2,71.34,25.24,103.75,44.71c62.5,37.56,115.1,91.3,152.12,155.4c37.01,64.11,57.25,136.53,58.53,209.44   c0.66,37.8-3.76,75.55-13.15,112.21c-9.8,38.27-25.07,75.51-45.37,110.68L754.72,1323.41z M754.72,32.44   c-40.07,0-79.41,5.32-116.92,15.82c-35.92,10.05-70.33,24.88-102.27,44.08c-61.63,37.04-113.51,90.03-150.01,153.26   s-56.46,134.65-57.72,206.54c-0.65,37.26,3.71,74.48,12.96,110.61c9.67,37.74,24.72,74.47,44.76,109.17l369.21,639.48   l369.21-639.48c20.03-34.7,35.09-71.43,44.76-109.17c9.25-36.13,13.62-73.35,12.96-110.61c-1.26-71.89-21.22-143.31-57.72-206.54   s-88.38-116.22-150.01-153.26c-31.94-19.2-66.35-34.03-102.28-44.08C834.13,37.77,794.79,32.44,754.72,32.44z"></path>	</g>	<g>		<g>			<g>				<g>					<path class="st0" d="M817.22,421.08c22.96,14.3,37.24,39.5,37.24,67.18v75.59c-33.41,3.75-67.13,5.66-100.26,5.66      c-33.04,0-66.41-1.89-99.21-5.63v-75.62c0-27.68,14.28-52.88,37.24-67.18c17.35,14.67,39.42,22.87,62.49,22.87      C777.8,443.94,799.86,435.75,817.22,421.08 M813.53,397.16c-14.17,16.62-35.25,27.17-58.8,27.17s-44.64-10.55-58.8-27.17      c-35.56,14.94-60.54,50.1-60.54,91.1v77.11c0,9.11,6.82,16.78,15.87,17.83c34.25,3.96,68.57,5.93,102.95,5.93      c34.59,0,69.25-1.99,103.97-5.95c9.06-1.03,15.9-8.71,15.9-17.83v-77.08C874.07,447.26,849.09,412.1,813.53,397.16      L813.53,397.16z"></path>					<path class="st0" d="M754.2,590.62c-34.34,0-69.04-2-103.12-5.94c-9.8-1.13-17.19-9.44-17.19-19.32v-77.11      c0-40.49,24.12-76.79,61.46-92.48l1.01-0.42l0.71,0.83c14.43,16.93,35.44,26.64,57.66,26.64s43.23-9.71,57.66-26.64l0.71-0.83      l1.01,0.42c37.34,15.69,61.46,51.99,61.46,92.48v77.08c0,9.9-7.41,18.2-17.23,19.32C823.66,588.61,788.62,590.62,754.2,590.62z       M695.5,398.97c-35.65,15.44-58.62,50.37-58.62,89.29v77.11c0,8.36,6.25,15.38,14.54,16.34c33.97,3.93,68.55,5.92,102.78,5.92      c34.31,0,69.23-2,103.8-5.94c8.3-0.95,14.57-7.97,14.57-16.34v-77.08c0-38.92-22.97-73.85-58.62-89.29      c-14.97,17.09-36.49,26.86-59.22,26.86S710.47,416.06,695.5,398.97z M754.2,571.01c-33.08,0-66.52-1.9-99.38-5.64l-1.33-0.15      v-76.96c0-28.06,14.19-53.65,37.95-68.46l0.93-0.58l0.83,0.71c17.17,14.52,39.02,22.51,61.52,22.51      c22.51,0,44.36-7.99,61.52-22.51l0.83-0.71l0.93,0.58c23.76,14.8,37.95,40.39,37.95,68.45v76.93l-1.33,0.15      C821.17,569.1,787.38,571.01,754.2,571.01z M656.49,562.54c32.32,3.63,65.18,5.47,97.71,5.47c32.63,0,65.85-1.85,98.76-5.5      v-74.25c0-26.66-13.29-51-35.62-65.33c-17.58,14.53-39.77,22.51-62.62,22.51s-45.04-7.99-62.62-22.51      c-22.32,14.33-35.62,38.67-35.62,65.33L656.49,562.54L656.49,562.54z"></path>				</g>			</g>			<g>				<g>					<path class="st0" d="M754.72,287.87c29.3,0,53.15,23.84,53.15,53.15c0,29.3-23.84,53.15-53.15,53.15      c-29.3,0-53.15-23.84-53.15-53.15C701.58,311.71,725.42,287.87,754.72,287.87 M754.72,268.26c-40.18,0-72.76,32.57-72.76,72.76      c0,40.18,32.57,72.76,72.76,72.76c40.18,0,72.76-32.57,72.76-72.76C827.48,300.84,794.91,268.26,754.72,268.26L754.72,268.26z"></path>					<path class="st0" d="M754.72,415.27c-40.95,0-74.26-33.31-74.26-74.26s33.31-74.26,74.26-74.26s74.26,33.31,74.26,74.26      S795.67,415.27,754.72,415.27z M754.72,269.76c-39.29,0-71.26,31.97-71.26,71.26s31.97,71.26,71.26,71.26      s71.26-31.97,71.26-71.26S794.01,269.76,754.72,269.76z M754.72,395.66c-30.13,0-54.65-24.51-54.65-54.65      s24.51-54.65,54.65-54.65s54.65,24.51,54.65,54.65S784.86,395.66,754.72,395.66z M754.72,289.37      c-28.48,0-51.65,23.17-51.65,51.65s23.17,51.65,51.65,51.65s51.65-23.17,51.65-51.65S783.2,289.37,754.72,289.37z"></path>				</g>			</g>		</g>		<g>			<g>				<g>					<g>						<path class="st0" d="M563.78,231.14c29.3,0,53.15,23.84,53.15,53.15c0,29.3-23.84,53.15-53.15,53.15       c-29.3,0-53.15-23.84-53.15-53.15C510.64,254.98,534.48,231.14,563.78,231.14 M563.78,211.53       c-40.18,0-72.76,32.57-72.76,72.76c0,40.18,32.57,72.76,72.76,72.76c40.18,0,72.76-32.57,72.76-72.76       C636.54,244.1,603.96,211.53,563.78,211.53L563.78,211.53z"></path>						<path class="st0" d="M563.78,358.54c-40.95,0-74.26-33.31-74.26-74.26c0-40.94,33.31-74.26,74.26-74.26       s74.26,33.31,74.26,74.26C638.04,325.23,604.73,358.54,563.78,358.54z M563.78,213.03c-39.29,0-71.26,31.96-71.26,71.26       c0,39.29,31.97,71.26,71.26,71.26s71.26-31.97,71.26-71.26C635.04,244.99,603.07,213.03,563.78,213.03z M563.78,338.93       c-30.13,0-54.65-24.51-54.65-54.65c0-30.13,24.51-54.65,54.65-54.65s54.65,24.51,54.65,54.65       C618.43,314.42,593.91,338.93,563.78,338.93z M563.78,232.64c-28.48,0-51.65,23.17-51.65,51.65s23.17,51.65,51.65,51.65       s51.65-23.17,51.65-51.65C615.43,255.81,592.26,232.64,563.78,232.64z"></path>					</g>				</g>				<g>					<g>						<path class="st0" d="M501.29,366.16c17.35,14.67,39.42,22.87,62.49,22.87s45.13-8.19,62.48-22.86       c6.65,4.16,12.64,9.28,17.79,15.18c-31.97,21.77-51.67,58.12-51.67,97.83v34.92c-9.75,0.32-19.51,0.48-29.17,0.48       c-33.03,0-66.38-1.89-99.16-5.62v-75.62C464.05,405.66,478.32,380.47,501.29,366.16 M622.58,342.25       c-14.17,16.62-35.25,27.17-58.8,27.17s-44.64-10.55-58.8-27.17c-35.56,14.94-60.54,50.1-60.54,91.1v77.11       c0,9.11,6.82,16.78,15.87,17.83c34.24,3.96,68.54,5.92,102.91,5.92c16.25,0,32.51-0.44,48.78-1.32v-53.7       c0-40.88,24.84-75.95,60.24-90.97C661.64,367.64,644.04,351.26,622.58,342.25L622.58,342.25z"></path>						<path class="st0" d="M563.21,535.7c-34.34,0-69.02-2-103.08-5.93c-9.8-1.13-17.19-9.44-17.19-19.32v-77.11       c0-40.49,24.12-76.79,61.46-92.48l1.01-0.42l0.71,0.83c14.43,16.93,35.44,26.64,57.66,26.64s43.23-9.71,57.66-26.64l0.71-0.83       l1.01,0.42c21.71,9.12,39.61,25.69,50.4,46.67l0.74,1.44l-1.49,0.63c-36.04,15.28-59.32,50.45-59.32,89.59v55.12l-1.42,0.08       C595.83,535.26,579.39,535.7,563.21,535.7z M504.56,344.05c-35.65,15.44-58.62,50.37-58.62,89.29v77.11       c0,8.36,6.25,15.38,14.54,16.34c33.95,3.92,68.51,5.91,102.74,5.91c15.65,0,31.55-0.42,47.28-1.24v-52.28       c0-39.8,23.36-75.62,59.66-91.7c-10.37-19.36-27.03-34.71-47.15-43.43c-14.97,17.09-36.49,26.86-59.22,26.86       C541.05,370.92,519.53,361.14,504.56,344.05z M563.21,516.09c-33.08,0-66.5-1.89-99.33-5.63l-1.33-0.15v-76.96       c0-28.06,14.19-53.65,37.95-68.45l0.93-0.58l0.83,0.71c17.17,14.52,39.02,22.51,61.52,22.51s44.35-7.99,61.51-22.5l0.84-0.71       l0.93,0.58c6.77,4.23,12.87,9.44,18.12,15.47l1.11,1.27l-1.4,0.95c-31.94,21.75-51.01,57.86-51.01,96.59v36.37l-1.45,0.05       C582.68,515.93,572.85,516.09,563.21,516.09z M465.55,507.63c32.3,3.62,65.15,5.46,97.66,5.46c9.13,0,18.43-0.15,27.67-0.44       v-33.47c0-39.15,19-75.69,50.92-98.1c-4.56-5.01-9.73-9.39-15.42-13.06c-17.58,14.52-39.76,22.5-62.6,22.5       c-22.85,0-45.04-7.99-62.62-22.51c-22.32,14.33-35.62,38.67-35.62,65.33v74.29H465.55z"></path>					</g>				</g>			</g>			<g>				<g>					<g>						<path class="st0" d="M950.67,231.14c29.3,0,53.15,23.84,53.15,53.15c0,29.3-23.84,53.15-53.15,53.15s-53.15-23.84-53.15-53.15       C897.53,254.98,921.37,231.14,950.67,231.14 M950.67,211.53c-40.18,0-72.76,32.57-72.76,72.76       c0,40.18,32.57,72.76,72.76,72.76s72.76-32.57,72.76-72.76S990.86,211.53,950.67,211.53L950.67,211.53z"></path>						<path class="st0" d="M950.67,358.54c-40.95,0-74.26-33.31-74.26-74.26c0-40.94,33.31-74.26,74.26-74.26       s74.26,33.31,74.26,74.26C1024.93,325.23,991.62,358.54,950.67,358.54z M950.67,213.03c-39.29,0-71.26,31.96-71.26,71.26       c0,39.29,31.96,71.26,71.26,71.26s71.26-31.97,71.26-71.26C1021.93,244.99,989.96,213.03,950.67,213.03z M950.67,338.93       c-30.13,0-54.65-24.51-54.65-54.65c0-30.13,24.51-54.65,54.65-54.65s54.65,24.51,54.65,54.65S980.81,338.93,950.67,338.93z        M950.67,232.64c-28.48,0-51.65,23.17-51.65,51.65s23.17,51.65,51.65,51.65s51.65-23.17,51.65-51.65       C1002.32,255.81,979.15,232.64,950.67,232.64z"></path>					</g>				</g>				<g>					<g>						<path class="st0" d="M1013.17,366.16c22.96,14.3,37.24,39.5,37.24,67.18v75.62c-32.78,3.73-66.13,5.62-99.16,5.62       c-9.66,0-19.42-0.16-29.17-0.48v-34.92c0-39.71-19.7-76.06-51.67-97.83c5.14-5.9,11.14-11.03,17.79-15.18       c17.35,14.67,39.41,22.86,62.48,22.86C973.75,389.03,995.81,380.84,1013.17,366.16 M1009.48,342.25       c-14.16,16.62-35.25,27.17-58.8,27.17s-44.64-10.55-58.8-27.17c-21.46,9.02-39.06,25.39-49.65,45.97       c35.4,15.01,60.24,50.09,60.24,90.97v53.7c16.28,0.88,32.54,1.32,48.78,1.32c34.37,0,68.67-1.97,102.91-5.92       c9.05-1.05,15.87-8.72,15.87-17.83v-77.11C1070.02,392.35,1045.04,357.19,1009.48,342.25L1009.48,342.25z"></path>						<path class="st0" d="M951.24,535.7c-16.18,0-32.62-0.44-48.86-1.32l-1.42-0.08v-55.12c0-39.14-23.29-74.3-59.33-89.59       l-1.49-0.63l0.74-1.44c10.79-20.97,28.69-37.55,50.4-46.67l1.01-0.42l0.71,0.83c14.43,16.93,35.44,26.64,57.66,26.64       s43.23-9.71,57.66-26.64l0.71-0.83l1.01,0.42c37.34,15.69,61.46,51.99,61.46,92.48v77.11c0,9.88-7.39,18.19-17.2,19.32       C1020.26,533.7,985.58,535.7,951.24,535.7z M903.96,531.46c15.73,0.82,31.63,1.24,47.28,1.24c34.22,0,68.79-1.99,102.74-5.91       c8.29-0.96,14.54-7.98,14.54-16.34v-77.11c0-38.92-22.97-73.85-58.62-89.29c-14.97,17.09-36.49,26.86-59.22,26.86       s-44.25-9.77-59.22-26.86c-20.12,8.72-36.78,24.07-47.15,43.43c36.3,16.08,59.66,51.9,59.66,91.7v52.28H903.96z        M951.24,516.09c-9.64,0-19.47-0.16-29.22-0.48l-1.45-0.05v-36.37c0-38.73-19.07-74.84-51.01-96.59l-1.4-0.95l1.11-1.27       c5.26-6.03,11.35-11.24,18.12-15.47l0.93-0.58l0.84,0.71c17.17,14.51,39.01,22.5,61.51,22.5c22.51,0,44.36-7.99,61.52-22.51       l0.83-0.71l0.93,0.58c23.76,14.8,37.95,40.39,37.95,68.45v76.96l-1.33,0.15C1017.74,514.19,984.32,516.09,951.24,516.09z        M923.57,512.65c9.24,0.29,18.54,0.44,27.67,0.44c32.52,0,65.37-1.84,97.66-5.46v-74.28c0-26.66-13.29-51-35.62-65.33       c-17.58,14.53-39.77,22.51-62.62,22.51c-22.84,0-45.03-7.98-62.6-22.5c-5.68,3.67-10.86,8.05-15.42,13.06       c31.92,22.41,50.92,58.95,50.92,98.1L923.57,512.65L923.57,512.65z"></path>					</g>				</g>			</g>		</g>	</g></g></svg>