<svg xmlns="http://www.w3.org/2000/svg" xmlns:xlink="http://www.w3.org/1999/xlink" id="Object" x="0px" y="0px" viewBox="0 0 1509.45 1366.47" style="enable-background:new 0 0 1509.45 1366.47;" xml:space="preserve"><style type="text/css">	.st0{fill:#1b3f92;}</style><g>	<g>		<path class="st0" d="M1018.2,350.5H488.8c-10.26,0-18.58-8.32-18.58-18.58s8.32-18.58,18.58-18.58h529.41   c10.26,0,18.58,8.32,18.58,18.58S1028.47,350.5,1018.2,350.5z"></path>	</g>	<g>		<path class="st0" d="M1156.29,1129.53c-9.85,0-18.07-7.75-18.55-17.69l-38.97-812.94c-0.67-13.9-12.09-24.79-26.01-24.79   c-14.36,0-26.04,11.68-26.04,26.04v810.81c0,10.26-8.32,18.58-18.58,18.58c-10.26,0-18.58-8.32-18.58-18.58V300.14   c0-34.85,28.35-63.21,63.21-63.21c33.78,0,61.51,26.43,63.13,60.18l38.97,812.94c0.49,10.25-7.42,18.96-17.67,19.45   C1156.9,1129.52,1156.6,1129.53,1156.29,1129.53z"></path>	</g>	<g>		<path class="st0" d="M1121.03,493.66h-92.65c-10.26,0-18.58-8.32-18.58-18.58s8.32-18.58,18.58-18.58h92.65   c10.26,0,18.58,8.32,18.58,18.58S1131.29,493.66,1121.03,493.66z"></path>	</g>	<g>		<g>			<path class="st0" d="M349.88,1129.53c-0.3,0-0.6-0.01-0.9-0.02c-10.25-0.49-18.16-9.2-17.67-19.45l38.97-812.94    c1.62-33.75,29.35-60.18,63.13-60.18c34.85,0,63.21,28.35,63.21,63.21v810.81c0,10.26-8.32,18.58-18.58,18.58    c-10.26,0-18.58-8.32-18.58-18.58V300.14c0-14.36-11.68-26.04-26.04-26.04c-13.92,0-25.34,10.89-26.01,24.79l-38.97,812.94    C367.95,1121.79,359.73,1129.53,349.88,1129.53z"></path>		</g>		<g>			<path class="st0" d="M477.8,493.66h-92.66c-10.26,0-18.58-8.32-18.58-18.58s8.32-18.58,18.58-18.58h92.66    c10.26,0,18.58,8.32,18.58,18.58S488.06,493.66,477.8,493.66z"></path>		</g>		<g>			<path class="st0" d="M538.53,1129.53h-236.2c-10.26,0-18.58-8.32-18.58-18.58s8.32-18.58,18.58-18.58h236.2    c10.26,0,18.58,8.32,18.58,18.58S548.79,1129.53,538.53,1129.53z"></path>		</g>	</g>	<g>		<path class="st0" d="M1207.11,1129.53h-236.2c-10.26,0-18.58-8.32-18.58-18.58s8.32-18.58,18.58-18.58h236.2   c10.26,0,18.58,8.32,18.58,18.58S1217.38,1129.53,1207.11,1129.53z"></path>	</g>	<g>		<g>			<path class="st0" d="M754.29,924.92c-50.03,0-100-12.27-145.23-36.74c-6-3.25-9.74-9.52-9.74-16.34V771.39    c0-6.55,3.44-12.61,9.07-15.96c5.62-3.35,12.6-3.5,18.36-0.38c76.91,41.62,169.49,43.06,247.66,3.86l8.22-4.12    c5.76-2.89,12.6-2.59,18.09,0.8c5.48,3.39,8.82,9.37,8.82,15.81v100.44c0,7.03-3.97,13.46-10.25,16.61l-8.22,4.12    C848.03,914.15,801.14,924.92,754.29,924.92z M636.49,860.5c74.22,36.32,161.43,36.4,235.89-0.15v-59.63    c-75.48,31.68-160.61,31.62-235.89,0.13V860.5z"></path>		</g>		<g>			<path class="st0" d="M617.82,886.62c-10.26,0-18.58-8.32-18.58-18.58V454.07c0-10.26,8.32-18.58,18.58-18.58    c10.26,0,18.58,8.32,18.58,18.58v413.96C636.4,878.3,628.08,886.62,617.82,886.62z"></path>		</g>		<g>			<path class="st0" d="M891.39,888.46c-10.26,0-18.58-8.32-18.58-18.58V456.1c0-10.26,8.32-18.58,18.58-18.58    c10.26,0,18.58,8.32,18.58,18.58v413.77C909.97,880.14,901.65,888.46,891.39,888.46z"></path>		</g>		<g>			<path class="st0" d="M617.79,469.73c-30.82,0-55.89-25.07-55.89-55.89v-36.68c0-10.26,8.32-18.58,18.58-18.58    c10.26,0,18.58,8.32,18.58,18.58v36.68c0,10.32,8.4,18.72,18.72,18.72c10.32,0,18.72-8.4,18.72-18.72v-36.68    c0-10.26,8.32-18.58,18.58-18.58s18.58,8.32,18.58,18.58v36.68C673.67,444.65,648.6,469.73,617.79,469.73z"></path>		</g>		<g>			<path class="st0" d="M889.81,469.73c-30.82,0-55.89-25.07-55.89-55.89v-36.68c0-10.26,8.32-18.58,18.58-18.58    c10.26,0,18.58,8.32,18.58,18.58v36.68c0,10.32,8.4,18.72,18.72,18.72c10.32,0,18.72-8.4,18.72-18.72v-36.68    c0-10.26,8.32-18.58,18.58-18.58s18.58,8.32,18.58,18.58v36.68C945.7,444.65,920.63,469.73,889.81,469.73z"></path>		</g>	</g></g></svg>