<svg xmlns="http://www.w3.org/2000/svg" xmlns:xlink="http://www.w3.org/1999/xlink" id="Object" x="0px" y="0px" viewBox="0 0 1509.45 1366.47" style="enable-background:new 0 0 1509.45 1366.47;" xml:space="preserve"><style type="text/css">	.st0{fill:#1b3f92;}</style><path class="st0" d="M1256.28,471.34c-27.42-64.82-66.66-123.03-116.65-173.02c-49.98-49.98-108.19-89.23-173.02-116.65 c-67.13-28.39-138.42-42.79-211.89-42.79s-144.76,14.4-211.89,42.79c-64.82,27.42-123.03,66.66-173.02,116.65 c-49.98,49.98-89.23,108.2-116.65,173.02c-25.32,59.86-39.47,123.03-42.25,188.1c-0.57,2.78-0.66,5.61-0.31,8.38 c-0.14,5.12-0.23,10.26-0.23,15.4c0,73.47,14.4,144.76,42.79,211.89c18.4,43.5,42.15,84.01,70.87,121.06 c1.17,1.99,2.61,3.83,4.28,5.45c12.88,16.19,26.7,31.71,41.49,46.5c49.98,49.98,108.19,89.23,173.02,116.65 c7.8,3.3,15.66,6.39,23.56,9.31c0.59,0.25,1.19,0.48,1.79,0.68c59.62,21.78,122.24,32.8,186.53,32.8 c64.11,0,126.56-10.97,186.04-32.63c0.94-0.29,1.87-0.64,2.77-1.04c7.74-2.87,15.44-5.89,23.08-9.12 c64.82-27.42,123.03-66.66,173.02-116.65c49.98-49.98,89.23-108.19,116.65-173.02c28.39-67.13,42.79-138.42,42.79-211.89 C1299.06,609.76,1284.67,538.47,1256.28,471.34z M1171.11,946.52l-46.34-142.98l121.72-88.89 C1241.13,799.52,1214.2,878.62,1171.11,946.52z M1089.91,765.19l-116.52-37.48L905.4,519.35l72.23-98.81h193.85 c42.71,67.52,69.46,146.07,74.95,230.34L1089.91,765.19z M754.34,860.38l-167.6-122.02l63.83-197.8h207.55l64.53,197.8 L754.34,860.38z M536.02,727.72l-116.55,37.49L262.93,652.16c5.3-84.75,32.11-163.76,75.03-231.62h193.02l72.26,98.85L536.02,727.72 z M263.02,715.8l121.56,87.79l-46.67,142.26C295.27,878.41,268.54,799.96,263.02,715.8z M1134.05,369H983.29L936.7,225.27 C1014,256.09,1081.72,305.94,1134.05,369z M876.15,205.58l59.83,184.61l-72.25,98.83H644.89l-72.21-98.78l60.57-184.64 c38.87-9.89,79.57-15.17,121.48-15.17C796.61,190.43,837.29,195.7,876.15,205.58z M572.53,225.36L525.4,369H375.39 C427.67,306,495.32,256.19,572.53,225.36z M375.27,997.32l60.06-183.08l116.57-37.49l176.64,128.6v121.96l-155.91,113.85 C495.32,1110.31,427.59,1060.42,375.27,997.32z M633.08,1160.83l121.26-88.55l121.88,88.59c-38.88,9.89-79.58,15.17-121.5,15.17 C712.76,1176.04,672,1170.75,633.08,1160.83z M936.78,1141.17l-156.7-113.9V905.38l177.43-128.64l116.55,37.49l59.56,183.76 C1081.36,1060.78,1013.83,1110.43,936.78,1141.17z"></path></svg>