<svg xmlns="http://www.w3.org/2000/svg" xmlns:xlink="http://www.w3.org/1999/xlink" id="Object" x="0px" y="0px" viewBox="0 0 1838.3 1366.47" style="enable-background:new 0 0 1838.3 1366.47;" xml:space="preserve"><style type="text/css">	.st0{fill:#1b3f92;}</style><g>	<path class="st0" d="M1016.02,1188.91H82.16c-9.93,0-17.98,8.05-17.98,17.98c0,9.93,8.05,17.98,17.98,17.98h933.85  c9.93,0,17.98-8.05,17.98-17.98C1034,1196.97,1025.95,1188.91,1016.02,1188.91z"></path>	<path class="st0" d="M130.82,1156.49h53.93h728.67h53.93c9.93,0,17.98-8.05,17.98-17.98c0-9.93-8.05-17.98-17.98-17.98h-35.94  V639.62c0-9.93-8.05-17.98-17.98-17.98h-65.9v-42.42c0-158.52-124.26-288.55-280.49-297.88v-46.29  c21.85-3.73,41.13-16.5,53.16-35.73c5.27-8.41,2.72-19.51-5.71-24.78c-8.42-5.26-19.51-2.7-24.78,5.71  c-7.83,12.5-21.32,19.98-36.09,19.98c-23.45,0-42.52-19.07-42.52-42.52c0-13.16,5.94-25.36,16.32-33.46  c7.82-6.11,9.21-17.41,3.09-25.24c-6.11-7.82-17.42-9.21-25.24-3.09c-19.15,14.96-30.13,37.49-30.13,61.79  c0,35.44,23.62,65.45,55.94,75.17v48.47c-156.18,9.33-280.4,139.37-280.4,297.88v42.42h-65.91c-9.93,0-17.98,8.05-17.98,17.98  v480.91h-35.94c-9.93,0-17.98,8.05-17.98,17.98C112.84,1148.44,120.89,1156.49,130.82,1156.49z M369.2,1113.2h-95.31v-104.17  c0-26.27,21.38-47.65,47.66-47.65c26.27,0,47.65,21.38,47.65,47.65V1113.2z M625.81,1116.13H472.37V957.86  c0-42.3,34.42-76.71,76.73-76.71c42.3,0,76.71,34.41,76.71,76.71V1116.13z M824.29,1113.2h-95.31v-104.17  c0-26.27,21.38-47.65,47.66-47.65c26.27,0,47.65,21.38,47.65,47.65V1113.2z M286.63,579.21c0-144.73,117.72-262.48,262.41-262.48  c144.75,0,262.51,117.75,262.51,262.48v42.42H286.63V579.21z M202.74,657.6h65.91h560.89h65.9v462.93h-35.19v-111.49  c0-46.11-37.51-83.62-83.62-83.62c-46.11,0-83.63,37.51-83.63,83.62v111.49h-31.24V957.86c0-62.13-50.55-112.68-112.68-112.68  c-62.14,0-112.69,50.54-112.69,112.68v162.67h-31.24v-111.49c0-46.11-37.51-83.62-83.62-83.62c-46.11,0-83.63,37.51-83.63,83.62  v111.49h-35.19V657.6z"></path>	<path class="st0" d="M308.87,875.88c3.51,3.51,8.11,5.27,12.71,5.27c4.6,0,9.21-1.76,12.72-5.27l51.1-51.11  c7.02-7.02,7.02-18.4,0-25.43l-51.1-51.13c-3.37-3.37-7.95-5.27-12.71-5.27h-0.01c-4.77,0-9.34,1.9-12.71,5.27l-51.14,51.13  c-3.38,3.37-5.27,7.95-5.27,12.72c0,4.77,1.9,9.34,5.27,12.71L308.87,875.88z M321.58,786.36l25.68,25.69l-25.68,25.68l-25.7-25.68  L321.58,786.36z"></path>	<path class="st0" d="M763.97,875.89c3.38,3.36,7.95,5.26,12.72,5.26h0c4.77,0,9.34-1.9,12.72-5.27l51.08-51.11  c7.02-7.02,7.02-18.4,0.01-25.42l-51.09-51.13c-3.37-3.38-7.95-5.28-12.72-5.28h0c-4.77,0-9.34,1.9-12.72,5.27l-51.14,51.13  c-3.37,3.37-5.27,7.95-5.27,12.72c0,4.77,1.9,9.34,5.27,12.72L763.97,875.89z M776.67,786.36l25.67,25.69l-25.67,25.68  l-25.69-25.68L776.67,786.36z"></path></g><g>	<path class="st0" d="M1792.74,1188.91h-674.49c-9.93,0-17.98,8.05-17.98,17.98c0,9.93,8.05,17.98,17.98,17.98h674.49  c9.93,0,17.98-8.05,17.98-17.98C1810.73,1196.97,1802.67,1188.91,1792.74,1188.91z"></path>	<path class="st0" d="M1192.56,1146.59h154.55h216.78h154.53c9.93,0,17.98-8.05,17.98-17.98V600.9c0-4.84-1.95-9.48-5.42-12.86  l-257.5-251.6V213.37h102.47c9.93,0,17.98-8.05,17.98-17.98c0-9.93-8.05-17.98-17.98-17.98h-102.47V109.9  c0-9.93-8.05-17.98-17.98-17.98c-9.93,0-17.98,8.05-17.98,17.98v67.51h-102.48c-9.93,0-17.98,8.05-17.98,17.98  c0,9.93,8.05,17.98,17.98,17.98h102.48V336.3l-257.53,251.73c-3.46,3.39-5.41,8.03-5.41,12.86v527.71  C1174.57,1138.54,1182.62,1146.59,1192.56,1146.59z M1437.51,1110.62h-72.43V953.64c0-43.69,31.16-80.24,72.43-88.61V1110.62z   M1545.91,1110.62h-72.43V865.03c41.27,8.36,72.43,44.91,72.43,88.61V1110.62z M1210.54,608.47l244.89-239.38l245,239.38v502.15  h-118.56V953.64c0-69.69-56.69-126.38-126.38-126.38c-69.69,0-126.38,56.69-126.38,126.38v156.99h-118.58V608.47z"></path>	<path class="st0" d="M1640.12,739.19c0-9.93-8.05-17.98-17.98-17.98H1288.9c-9.93,0-17.98,8.05-17.98,17.98s8.05,17.98,17.98,17.98  h333.23C1632.06,757.18,1640.12,749.12,1640.12,739.19z"></path></g></svg>